<?xml version="1.0" encoding="utf-8"?>
<!-- Generator: Adobe Illustrator 23.0.1, SVG Export Plug-In . SVG Version: 6.00 Build 0)  -->
<svg version="1.1" id="Layer_1" xmlns="http://www.w3.org/2000/svg" xmlns:xlink="http://www.w3.org/1999/xlink" x="0px" y="0px"
	 viewBox="0 0 100 100" style="enable-background:new 0 0 100 100;" xml:space="preserve">
<path d="M47,17c0,1.1-0.9,2-2,2s-2-0.9-2-2c0-1.1,0.9-2,2-2S47,15.9,47,17z M55,15c-1.1,0-2,0.9-2,2c0,1.1,0.9,2,2,2s2-0.9,2-2
	C57,15.9,56.1,15,55,15z M93,54v3c0,1.1-0.9,2-2,2s-2-0.9-2-2v-3c0-1.7-1.3-3-3-3s-3,1.3-3,3v3c0,1.1-0.9,2-2,2s-2-0.9-2-2v-3
	c0-3.2,2.1-5.8,5-6.7v-8.6c-2.2-0.7-4-2.5-4.7-4.7H73v19c0,3.3-2.7,6-6,6v17c0,3.3-2.7,6-6,6h-4v6c0,3.9-3.1,7-7,7s-7-3.1-7-7v-6h-4
	c-3.3,0-6-2.7-6-6V59c-3.3,0-6-2.7-6-6V34h-6.3c-0.7,2.2-2.5,4-4.7,4.7v8.6c2.9,0.9,5,3.5,5,6.7v3c0,1.1-0.9,2-2,2s-2-0.9-2-2v-3
	c0-1.7-1.3-3-3-3s-3,1.3-3,3v3c0,1.1-0.9,2-2,2s-2-0.9-2-2v-3c0-3.2,2.1-5.8,5-6.7v-8.6c-2.9-0.9-5-3.5-5-6.7c0-3.9,3.1-7,7-7
	c3.2,0,5.8,2.1,6.7,5h6.4c0.5-2.8,2.9-5,5.9-5V11c0-3.3,2.7-6,6-6h22c3.3,0,6,2.7,6,6v14c3,0,5.4,2.2,5.9,5h6.4c0.9-2.9,3.6-5,6.7-5
	c3.9,0,7,3.1,7,7c0,3.2-2.1,5.8-5,6.7v8.6C90.9,48.2,93,50.8,93,54z M17,32c0-1.7-1.3-3-3-3s-3,1.3-3,3c0,1.6,1.3,3,3,3
	S17,33.6,17,32z M37,25h26V11c0-1.1-0.9-2-2-2H39c-1.1,0-2,0.9-2,2V25z M53,72c0-1.7-1.3-3-3-3s-3,1.3-3,3v16c0,1.6,1.3,3,3,3
	s3-1.4,3-3V72z M63,59H37v17c0,1.1,0.9,2,2,2h4v-6c0-3.9,3.1-7,7-7s7,3.1,7,7v6h4c1.1,0,2-0.9,2-2V59z M69,31c0-1.1-0.9-2-2-2H33
	c-1.1,0-2,0.9-2,2v22c0,1.1,0.9,2,2,2h34c1.1,0,2-0.9,2-2V31z M86,35c1.7,0,3-1.4,3-3c0-1.7-1.3-3-3-3s-3,1.3-3,3
	C83,33.6,84.3,35,86,35z M63,42c0,1.1-0.9,2-2,2h-4.3c-0.9,2.9-3.6,5-6.7,5s-5.8-2.1-6.7-5H39c-1.1,0-2-0.9-2-2c0-1.1,0.9-2,2-2h4.3
	c0.9-2.9,3.6-5,6.7-5s5.8,2.1,6.7,5H61C62.1,40,63,40.9,63,42z M53,42c0-1.7-1.3-3-3-3s-3,1.3-3,3c0,1.6,1.3,3,3,3S53,43.6,53,42z"
	/>
</svg>
